<svg width="400" height="270" viewBox="0 0 400 270" fill="none" xmlns="http://www.w3.org/2000/svg">
<path d="M272.12 270C285.581 270 296.493 264.798 296.493 258.382C296.493 251.965 285.581 246.764 272.12 246.764C258.66 246.764 247.748 251.965 247.748 258.382C247.748 264.798 258.66 270 272.12 270Z" fill="#F0F0F0"/>
<path d="M81.5349 57.4738V97.4457C81.5349 98.7569 82.4567 99.2972 83.6011 98.6377L176.402 45.0532C177.003 44.6607 177.503 44.1326 177.862 43.5114C178.221 42.8903 178.429 42.1934 178.469 41.4772V1.47355C178.469 0.162349 177.539 -0.378026 176.402 0.281549L83.6011 53.8661C82.995 54.2602 82.4915 54.793 82.1322 55.4204C81.7729 56.0477 81.5682 56.7516 81.5349 57.4738Z" fill="#F0F0F0"/>
<path d="M87.9955 56.846L115.809 40.7937C117.088 40.0547 118.113 40.6507 118.113 42.1208V70.0693C118.07 70.8664 117.838 71.6419 117.438 72.3324C117.037 73.0229 116.479 73.609 115.809 74.0426L87.9955 90.1029C86.724 90.834 85.6909 90.238 85.6909 88.7678V60.8352C85.734 60.0358 85.9651 59.2579 86.3656 58.5647C86.766 57.8715 87.3245 57.2827 87.9955 56.846Z" fill="#FAFAFA"/>
<path d="M110.516 54.7402L102.244 71.8892L98.0321 69.4575C97.6277 69.2363 97.1533 69.1806 96.7086 69.3021C96.264 69.4237 95.8838 69.7129 95.6481 70.1091L85.6909 87.2819V88.7838C85.6909 90.2539 86.724 90.8499 87.9955 90.1189L115.809 74.0586C116.478 73.6235 117.035 73.0372 117.435 72.3469C117.836 71.6567 118.068 70.8819 118.113 70.0853V60.2552L112.551 54.4223C112.427 54.2486 112.256 54.1128 112.06 54.0302C111.863 53.9475 111.647 53.9211 111.436 53.9541C111.225 53.9871 111.027 54.0781 110.865 54.2169C110.702 54.3557 110.582 54.5369 110.516 54.7402Z" fill="#378EC5"/>
<path d="M89.8709 67.0734C91.5894 65.9525 93.0196 64.4423 94.0455 62.6654C95.0713 60.8885 95.6639 58.8948 95.7753 56.846C95.7753 55.1216 95.219 53.8739 94.3051 53.2064L87.9955 56.846C87.3266 57.2811 86.7694 57.8674 86.3691 58.5577C85.9687 59.2479 85.7364 60.0227 85.6909 60.8193V67.4707C86.7796 68.1065 88.2418 68.0111 89.8709 67.0734Z" fill="#378EC5"/>
<path d="M128.492 36.0813L170.284 11.9472C171.237 11.3989 172.008 11.7883 172.008 12.8214C171.966 13.4003 171.788 13.9611 171.489 14.4582C171.189 14.9554 170.776 15.3747 170.284 15.6822L128.492 39.8083C127.539 40.3566 126.768 39.9672 126.768 38.9342C126.811 38.3566 126.99 37.7974 127.289 37.3017C127.589 36.8061 128.001 36.388 128.492 36.0813Z" fill="#FAFAFA"/>
<path d="M128.492 44.338L170.284 20.2039C171.237 19.6556 172.008 20.045 172.008 21.0781C171.966 21.657 171.788 22.2178 171.489 22.715C171.189 23.2121 170.776 23.6314 170.284 23.9389L128.492 48.065C127.539 48.6133 126.768 48.224 126.768 47.1988C126.81 46.6199 126.988 46.0591 127.288 45.562C127.587 45.0648 128 44.6455 128.492 44.338Z" fill="#FAFAFA"/>
<path d="M128.492 52.5946L170.284 28.4685C171.237 27.9201 172.008 28.3095 172.008 29.3346C171.966 29.9136 171.788 30.4744 171.489 30.9715C171.189 31.4686 170.776 31.888 170.284 32.1955L128.492 56.3216C127.539 56.8779 126.768 56.4885 126.768 55.4554C126.81 54.8765 126.988 54.3156 127.288 53.8185C127.587 53.3214 128 52.9021 128.492 52.5946Z" fill="#FAFAFA"/>
<path d="M128.492 60.8512L170.284 36.7251C171.237 36.1767 172.008 36.5661 172.008 37.5992C171.965 38.1767 171.786 38.736 171.487 39.2316C171.187 39.7273 170.775 40.1454 170.284 40.4521L128.492 64.6259C127.539 65.1742 126.768 64.7848 126.768 63.7517C126.804 63.1659 126.979 62.5971 127.279 62.0926C127.579 61.5881 127.995 61.1625 128.492 60.8512Z" fill="#FAFAFA"/>
<path d="M62.145 183.238V124.584C62.1832 123.867 62.3903 123.169 62.7493 122.548C63.1084 121.926 63.6093 121.399 64.2112 121.008L134.396 80.4795C135.533 79.8199 136.462 80.3524 136.462 81.6715V140.326C136.422 141.042 136.215 141.739 135.856 142.36C135.497 142.981 134.997 143.51 134.396 143.902L64.2112 184.43C63.0668 185.09 62.145 184.557 62.145 183.238Z" fill="#F0F0F0"/>
<path d="M62.145 180.306V183.238C62.145 184.557 63.0668 185.09 64.2112 184.43L134.396 143.902C134.997 143.51 135.497 142.981 135.856 142.36C136.215 141.739 136.422 141.042 136.462 140.326V137.386L62.145 180.306Z" fill="#378EC5"/>
<path d="M96.1012 127.111L103.253 126.737C104.127 126.69 104.366 127.182 103.786 127.85L95.5687 137.195C94.9886 137.855 94.5198 137.672 94.5198 136.798V128.787C94.5229 128.36 94.6876 127.949 94.981 127.638C95.2743 127.327 95.6745 127.139 96.1012 127.111Z" fill="#378EC5"/>
<path d="M94.2577 142.321C93.4006 142.332 92.5559 142.115 91.8101 141.693C90.0459 140.668 89.0764 138.514 89.0764 135.701C89.0764 129.963 93.1213 122.986 98.0959 120.086C100.551 118.663 102.864 118.449 104.644 119.466C106.424 120.483 107.386 122.645 107.386 125.45C107.386 131.195 103.333 138.164 98.3661 141.065C97.1298 141.835 95.7133 142.268 94.2577 142.321ZM102.204 119.378C100.846 119.432 99.5256 119.84 98.374 120.563C93.5504 123.344 89.6327 130.138 89.6327 135.701C89.6327 138.339 90.5068 140.302 92.0962 141.216C93.6855 142.13 95.8152 141.915 98.0959 140.596C102.92 137.807 106.837 131.06 106.837 125.45C106.837 122.811 105.963 120.857 104.374 119.935C103.709 119.563 102.958 119.371 102.196 119.378H102.204Z" fill="#378EC5"/>
<path d="M66.0146 70.0773L61.6677 67.5821C59.5936 66.1914 56.709 66.247 53.5224 68.0907C47.165 71.7461 42.0632 81.0199 42.0632 88.8077V90.5798C42.0632 98.3675 52.537 106.823 52.537 106.823L56.8123 109.247C56.8123 109.247 54.2455 106.314 54.5395 105.71C57.3765 99.9569 64.9656 83.698 64.9656 77.3406V75.5685C64.9817 74.2859 64.8185 73.0074 64.4808 71.77L64.9656 72.0481L66.0146 70.0773ZM53.5144 87.9335C50.3357 89.7613 47.7849 88.2752 47.7849 84.6277C49.4854 84.3575 53.7687 77.0466 53.5144 74.7023C56.6931 72.8746 59.236 74.3606 59.244 78.0081C59.1363 79.9964 58.5614 81.9313 57.5659 83.6559C56.5704 85.3804 55.1823 86.8459 53.5144 87.9335Z" fill="#378EC5"/>
<g opacity="0.2">
<path d="M66.0146 70.0773L61.6677 67.5821C59.5936 66.1914 56.709 66.247 53.5224 68.0907C47.165 71.7461 42.0632 81.0199 42.0632 88.8077V90.5798C42.0632 98.3675 52.537 106.823 52.537 106.823L56.8123 109.247C56.8123 109.247 54.2455 106.314 54.5395 105.71C57.3765 99.9569 64.9656 83.698 64.9656 77.3406V75.5685C64.9817 74.2859 64.8185 73.0074 64.4808 71.77L64.9656 72.0481L66.0146 70.0773ZM53.5144 87.9335C50.3357 89.7613 47.7849 88.2752 47.7849 84.6277C49.4854 84.3575 53.7687 77.0466 53.5144 74.7023C56.6931 72.8746 59.236 74.3606 59.244 78.0081C59.1363 79.9964 58.5614 81.9313 57.5659 83.6559C56.5704 85.3804 55.1823 86.8459 53.5144 87.9335Z" fill="black"/>
</g>
<path d="M66.0148 70.0774C65.9673 70.0436 65.9168 70.0143 65.8638 69.99C63.8215 68.8456 61.0958 69.0046 58.092 70.7369C53.5624 73.3594 49.6446 78.8505 47.7613 84.6278C47.033 86.8258 46.647 89.1227 46.6169 91.4381V93.234C46.6169 99.2338 53.4114 106.195 56.5344 109.08C56.602 109.14 56.6737 109.196 56.749 109.247C56.9326 109.359 57.1378 109.432 57.3512 109.46C57.5647 109.489 57.7818 109.472 57.9884 109.411C58.195 109.351 58.3867 109.247 58.551 109.108C58.7152 108.969 58.8485 108.797 58.9423 108.603C61.6441 103.04 69.5034 86.4475 69.5034 79.9948V78.2227C69.5511 74.2176 68.1922 71.3886 66.0148 70.0774ZM52.4657 88.4183C52.3997 88.0405 52.3678 87.6575 52.3703 87.274C52.4753 85.2849 53.0482 83.3486 54.0424 81.6226C55.0365 79.8965 56.424 78.4295 58.092 77.3406C58.4252 77.1487 58.7733 76.9839 59.133 76.848C61.8031 75.8785 63.8215 77.4122 63.8215 80.6465C63.7145 82.6338 63.1398 84.5679 62.1442 86.2912C61.1486 88.0145 59.7602 89.4785 58.092 90.5639C55.2868 92.2009 52.9505 91.2156 52.4657 88.4183Z" fill="#378EC5"/>
<path d="M63.8214 80.6544C63.7144 82.6417 63.1397 84.5758 62.1441 86.2991C61.1484 88.0224 59.76 89.4864 58.0918 90.5718C55.2867 92.1612 52.9503 91.2155 52.4656 88.4183C52.8297 88.2901 53.1809 88.1278 53.5145 87.9335C55.1814 86.8455 56.5683 85.3797 57.5624 83.6551C58.5565 81.9306 59.13 79.9959 59.2362 78.0081C59.2398 77.6216 59.2052 77.2356 59.1328 76.8558C61.8029 75.8864 63.8214 77.4201 63.8214 80.6544Z" fill="#378EC5"/>
<g opacity="0.2">
<path d="M63.8214 80.6544C63.7144 82.6417 63.1397 84.5758 62.1441 86.2991C61.1484 88.0224 59.76 89.4864 58.0918 90.5718C55.2867 92.1612 52.9503 91.2155 52.4656 88.4183C52.8297 88.2901 53.1809 88.1278 53.5145 87.9335C55.1814 86.8455 56.5683 85.3797 57.5624 83.6551C58.5565 81.9306 59.13 79.9959 59.2362 78.0081C59.2398 77.6216 59.2052 77.2356 59.1328 76.8558C61.8029 75.8864 63.8214 77.4201 63.8214 80.6544Z" fill="black"/>
</g>
<path d="M147.317 179.32C147.317 179.32 150.186 161.043 143.813 145.325C137.439 129.606 128.849 128.636 124.399 130.869C119.949 133.103 122.81 141.82 126.783 147.677C132.075 155.361 140.817 171.906 140.531 186.766L147.317 179.32Z" fill="#378EC5"/>
<path opacity="0.2" d="M147.317 179.32C147.317 179.32 150.186 161.043 143.813 145.325C137.439 129.606 128.849 128.636 124.399 130.869C119.949 133.103 122.81 141.82 126.783 147.677C132.075 155.361 140.817 171.906 140.531 186.766L147.317 179.32Z" fill="black"/>
<path d="M144.457 180.481C144.385 180.479 144.315 180.462 144.25 180.433C144.185 180.403 144.127 180.361 144.079 180.308C144.031 180.255 143.994 180.194 143.97 180.126C143.946 180.059 143.936 179.988 143.94 179.916C144.989 154.892 132.489 136.21 127.093 132.57C127.034 132.53 126.984 132.479 126.944 132.42C126.905 132.361 126.878 132.295 126.864 132.225C126.85 132.155 126.851 132.084 126.865 132.014C126.879 131.944 126.906 131.878 126.946 131.819C126.986 131.76 127.037 131.71 127.096 131.67C127.155 131.631 127.221 131.604 127.291 131.59C127.361 131.576 127.433 131.577 127.502 131.591C127.572 131.605 127.638 131.632 127.697 131.672C134.054 135.916 146.07 155.019 145.013 179.964C145.011 180.035 144.995 180.104 144.966 180.169C144.936 180.233 144.895 180.291 144.843 180.339C144.791 180.387 144.73 180.424 144.664 180.449C144.598 180.473 144.527 180.484 144.457 180.481Z" fill="white"/>
<path d="M146.189 201.023C145.1 198.289 142.287 195.238 135.064 191.98C127.84 188.721 122.405 184.375 121.403 181.228C121.102 180.358 121.063 179.42 121.29 178.528C121.518 177.637 122.002 176.832 122.683 176.213C122.683 176.213 115.872 175.419 115.014 171.247C113.941 165.986 119.893 165.644 119.893 165.644C119.893 165.644 112.082 154.646 110.008 149.751C107.934 144.856 110.326 144.562 115.364 146.429C120.402 148.297 130.002 157.698 131.488 160.566C131.488 160.566 134.086 157.388 136.883 159.478C139.681 161.568 139.816 167.822 138.163 170.078C139.278 169.871 140.428 169.991 141.476 170.424C142.524 170.857 143.424 171.584 144.067 172.518C146.912 176.245 147.85 185.567 147.85 185.567L146.189 201.023Z" fill="#378EC5"/>
<path d="M146.697 198.48C146.576 198.478 146.46 198.437 146.365 198.362C146.27 198.288 146.202 198.184 146.173 198.067C142.311 181.975 123.978 156.291 112.59 148.122C112.532 148.08 112.483 148.028 112.445 147.968C112.407 147.908 112.382 147.841 112.37 147.771C112.358 147.7 112.36 147.629 112.376 147.559C112.392 147.49 112.422 147.425 112.463 147.367C112.504 147.309 112.556 147.26 112.617 147.222C112.677 147.184 112.744 147.159 112.814 147.147C112.884 147.135 112.956 147.137 113.025 147.153C113.094 147.169 113.16 147.198 113.218 147.24C124.748 155.512 143.312 181.522 147.23 197.812C147.261 197.952 147.236 198.099 147.16 198.221C147.084 198.343 146.964 198.43 146.824 198.464L146.697 198.48Z" fill="white"/>
<path d="M290.54 36.4389C290.445 36.4378 290.353 36.4132 290.27 36.3674L288.037 35.0721C287.975 35.0366 287.921 34.9894 287.878 34.933C287.835 34.8767 287.803 34.8124 287.784 34.7437C287.766 34.6751 287.761 34.6035 287.77 34.5331C287.78 34.4626 287.803 34.3946 287.838 34.3331C287.874 34.2715 287.921 34.2175 287.977 34.1742C288.034 34.1309 288.098 34.0991 288.167 34.0807C288.235 34.0622 288.307 34.0575 288.377 34.0667C288.448 34.0759 288.516 34.0989 288.577 34.1344L290.81 35.4297C290.872 35.4651 290.926 35.5124 290.969 35.5687C291.013 35.625 291.044 35.6894 291.063 35.758C291.081 35.8267 291.086 35.8983 291.077 35.9688C291.068 36.0393 291.044 36.1072 291.009 36.1688C290.961 36.251 290.893 36.3193 290.811 36.3668C290.728 36.4142 290.635 36.4391 290.54 36.4389Z" fill="white"/>
<path d="M146.189 83.5548V201.786C146.189 203.105 147.111 203.637 148.247 202.978L286.154 123.36C286.755 122.967 287.255 122.439 287.614 121.818C287.972 121.197 288.18 120.5 288.22 119.784V1.55298C288.22 0.233832 287.291 -0.298596 286.154 0.360979L148.247 79.9788C147.647 80.3712 147.148 80.8995 146.791 81.5208C146.433 82.1421 146.227 82.839 146.189 83.5548Z" fill="#455A64"/>
<path d="M162.329 105.392C162.329 109.517 165.404 111.074 169.211 108.881L278.534 45.7604V30.8524L169.211 93.965C165.404 96.1662 162.329 101.276 162.329 105.392Z" fill="#F5F5F5"/>
<path d="M287.83 25.5043C291.629 23.3111 294.712 24.8686 294.712 28.985C294.712 33.1014 291.629 38.219 287.83 40.4123L278.573 45.7604V30.8525L287.83 25.5043Z" fill="#378EC5"/>
<path d="M284.493 38.068C284.097 38.0736 283.707 37.972 283.364 37.774C282.942 37.4914 282.604 37.1001 282.386 36.6413C282.168 36.1825 282.077 35.6733 282.125 35.1675C282.182 33.9237 282.536 32.7117 283.158 31.6332C283.781 30.5547 284.652 29.6411 285.701 28.9691C286.101 28.6427 286.591 28.4459 287.106 28.4048C287.62 28.3637 288.135 28.4803 288.582 28.7391C289.029 28.9979 289.387 29.3867 289.607 29.8536C289.828 30.3205 289.901 30.8436 289.817 31.3531C289.758 32.5964 289.402 33.8077 288.78 34.8859C288.158 35.964 287.288 36.878 286.241 37.5515C285.713 37.8739 285.111 38.052 284.493 38.068ZM287.441 29.5254C287.015 29.5464 286.601 29.6778 286.241 29.9068C285.363 30.4899 284.632 31.2682 284.106 32.1809C283.579 33.0936 283.271 34.1158 283.205 35.1675C283.123 35.484 283.147 35.8186 283.274 36.1201C283.4 36.4215 283.622 36.6732 283.905 36.8364C284.189 36.9997 284.518 37.0656 284.842 37.0239C285.166 36.9823 285.468 36.8354 285.701 36.6058C286.579 36.0237 287.311 35.2455 287.837 34.3326C288.364 33.4198 288.672 32.3971 288.736 31.3451C288.777 31.03 288.734 30.7098 288.611 30.4167C288.488 30.1237 288.29 29.8683 288.037 29.6763C287.856 29.5726 287.65 29.5204 287.441 29.5254Z" fill="white"/>
<path d="M289.42 58.1334L183.729 119.116C183.127 119.506 182.625 120.034 182.266 120.656C181.907 121.277 181.7 121.975 181.663 122.692V155.218C181.663 156.537 182.585 157.07 183.729 156.41L289.42 95.4034C290.022 95.0123 290.523 94.4846 290.882 93.8631C291.241 93.2416 291.448 92.5441 291.487 91.8274V59.3254C291.447 58.0063 290.525 57.4739 289.42 58.1334Z" fill="#378EC5"/>
<path opacity="0.2" d="M289.42 58.1334L183.729 119.116C183.127 119.506 182.625 120.034 182.266 120.656C181.907 121.277 181.7 121.975 181.663 122.692V155.218C181.663 156.537 182.585 157.07 183.729 156.41L289.42 95.4034C290.022 95.0123 290.523 94.4846 290.882 93.8631C291.241 93.2416 291.448 92.5441 291.487 91.8274V59.3254C291.447 58.0063 290.525 57.4739 289.42 58.1334Z" fill="white"/>
<path d="M222.151 102.357L241.303 91.2949C242.256 90.7466 243.027 91.136 243.027 92.169C242.984 92.7466 242.805 93.3058 242.506 93.8015C242.206 94.2971 241.794 94.7152 241.303 95.0219L222.151 106.084C221.198 106.632 220.427 106.243 220.427 105.21C220.47 104.632 220.649 104.073 220.948 103.577C221.248 103.081 221.66 102.663 222.151 102.357Z" fill="white"/>
<path d="M220.427 112.664C220.427 113.697 221.221 114.086 222.151 113.538L280.043 80.1139C280.533 79.8051 280.944 79.3852 281.242 78.8882C281.54 78.3913 281.718 77.8312 281.759 77.2531C281.759 76.228 280.965 75.8386 280.043 76.3869L222.151 109.811C221.66 110.117 221.248 110.535 220.948 111.031C220.649 111.527 220.47 112.086 220.427 112.664Z" fill="white"/>
<path d="M220.427 120.118C220.427 121.151 221.221 121.54 222.151 120.992L280.043 87.5679C280.533 87.2591 280.944 86.8392 281.242 86.3422C281.54 85.8453 281.718 85.2851 281.759 84.7071C281.759 83.682 280.965 83.2926 280.043 83.8409L222.151 117.265C221.66 117.571 221.248 117.989 220.948 118.485C220.649 118.981 220.47 119.54 220.427 120.118Z" fill="white"/>
<path d="M220.427 127.571C220.427 128.605 221.221 128.994 222.151 128.446L280.043 95.0219C280.533 94.713 280.944 94.2932 281.242 93.7962C281.54 93.2992 281.718 92.7391 281.759 92.1611C281.759 91.1359 280.965 90.7466 280.043 91.2949L222.151 124.719C221.66 125.025 221.248 125.443 220.948 125.939C220.649 126.435 220.47 126.994 220.427 127.571Z" fill="white"/>
<path d="M186.988 120.976L211.909 106.584C213.053 105.933 213.975 106.465 213.975 107.776V132.832C213.936 133.549 213.729 134.246 213.37 134.867C213.011 135.489 212.51 136.017 211.909 136.408L186.988 150.792C185.851 151.451 184.922 150.919 184.922 149.608V124.552C184.96 123.835 185.167 123.138 185.526 122.516C185.885 121.895 186.386 121.367 186.988 120.976Z" fill="white"/>
<path d="M207.172 119.092L199.758 134.461L195.983 132.284C195.619 132.074 195.185 132.016 194.779 132.125C194.372 132.234 194.025 132.5 193.814 132.864L184.922 148.257V149.6C184.922 150.919 185.851 151.451 186.988 150.792L211.909 136.408C212.51 136.017 213.011 135.489 213.37 134.868C213.729 134.247 213.937 133.549 213.975 132.832V124.035L208.96 118.806C208.847 118.66 208.696 118.547 208.524 118.48C208.352 118.412 208.164 118.391 207.982 118.421C207.799 118.45 207.628 118.528 207.485 118.646C207.343 118.764 207.235 118.918 207.172 119.092Z" fill="#378EC5"/>
<path d="M188.665 130.146C190.205 129.141 191.487 127.787 192.407 126.194C193.326 124.6 193.858 122.813 193.957 120.976C194.01 120.366 193.918 119.752 193.689 119.185C193.46 118.617 193.099 118.112 192.638 117.71L186.988 120.976C186.386 121.367 185.885 121.895 185.526 122.516C185.167 123.138 184.96 123.835 184.922 124.552V130.512C185.883 131.068 187.202 130.989 188.665 130.146Z" fill="#378EC5"/>
<path d="M289.42 106.584L183.729 167.567C183.128 167.958 182.627 168.486 182.268 169.107C181.909 169.729 181.702 170.426 181.663 171.143V203.693C181.663 205.004 182.585 205.536 183.729 204.885L289.42 143.862C290.022 143.471 290.523 142.943 290.882 142.322C291.241 141.7 291.448 141.003 291.487 140.286V107.776C291.447 106.465 290.525 105.949 289.42 106.584Z" fill="#378EC5"/>
<path opacity="0.2" d="M289.42 106.584L183.729 167.567C183.128 167.958 182.627 168.486 182.268 169.107C181.909 169.729 181.702 170.426 181.663 171.143V203.693C181.663 205.004 182.585 205.536 183.729 204.885L289.42 143.862C290.022 143.471 290.523 142.943 290.882 142.322C291.241 141.7 291.448 141.003 291.487 140.286V107.776C291.447 106.465 290.525 105.949 289.42 106.584Z" fill="white"/>
<path d="M222.151 150.808L241.303 139.754C242.256 139.206 243.027 139.595 243.027 140.62C242.985 141.199 242.807 141.76 242.507 142.257C242.208 142.754 241.795 143.173 241.303 143.481L222.151 154.535C221.198 155.083 220.427 154.694 220.427 153.668C220.469 153.09 220.647 152.529 220.946 152.032C221.246 151.535 221.659 151.115 222.151 150.808Z" fill="white"/>
<path d="M220.427 161.122C220.427 162.148 221.221 162.537 222.151 161.989L280.043 128.565C280.532 128.257 280.942 127.838 281.241 127.343C281.539 126.847 281.716 126.289 281.759 125.712C281.759 124.679 280.965 124.29 280.043 124.838L222.151 158.262C221.659 158.569 221.246 158.988 220.946 159.486C220.647 159.983 220.469 160.543 220.427 161.122Z" fill="white"/>
<path d="M220.427 168.576C220.427 169.602 221.221 169.991 222.151 169.443L280.043 136.019C280.532 135.711 280.942 135.292 281.241 134.797C281.539 134.301 281.716 133.743 281.759 133.166C281.759 132.133 280.965 131.744 280.043 132.292L222.151 165.716C221.659 166.023 221.246 166.442 220.946 166.94C220.647 167.437 220.469 167.997 220.427 168.576Z" fill="white"/>
<path d="M220.427 176.03C220.427 177.056 221.221 177.445 222.151 176.897L280.043 143.473C280.532 143.165 280.942 142.746 281.241 142.251C281.539 141.755 281.716 141.197 281.759 140.62C281.759 139.587 280.965 139.197 280.043 139.746L222.151 173.17C221.659 173.477 221.246 173.896 220.946 174.394C220.647 174.891 220.469 175.451 220.427 176.03Z" fill="white"/>
<path d="M186.988 169.435L211.909 155.043C213.053 154.384 213.975 154.916 213.975 156.235V181.283C213.938 182 213.731 182.698 213.372 183.32C213.013 183.942 212.511 184.469 211.909 184.859L186.988 199.251C185.851 199.91 184.922 199.378 184.922 198.059V173.011C184.96 172.294 185.167 171.596 185.526 170.975C185.885 170.354 186.386 169.826 186.988 169.435Z" fill="white"/>
<path d="M207.172 167.551L199.758 182.92L195.983 180.735C195.802 180.631 195.603 180.564 195.396 180.537C195.189 180.511 194.978 180.525 194.777 180.58C194.575 180.634 194.387 180.728 194.222 180.855C194.056 180.983 193.918 181.142 193.814 181.323L184.922 196.716V198.059C184.922 199.378 185.851 199.91 186.988 199.251L211.909 184.859C212.51 184.47 213.011 183.944 213.37 183.323C213.729 182.703 213.937 182.007 213.975 181.291V172.486L208.96 167.265C208.848 167.117 208.698 167.002 208.525 166.932C208.352 166.863 208.164 166.841 207.98 166.871C207.797 166.9 207.624 166.979 207.482 167.099C207.34 167.219 207.233 167.375 207.172 167.551Z" fill="#378EC5"/>
<path d="M188.665 178.597C190.205 177.594 191.487 176.241 192.407 174.649C193.326 173.057 193.858 171.271 193.957 169.435C194.01 168.825 193.918 168.211 193.689 167.644C193.46 167.076 193.099 166.571 192.638 166.169L186.988 169.435C186.386 169.826 185.885 170.353 185.526 170.975C185.167 171.596 184.96 172.294 184.922 173.011V178.971C185.883 179.519 187.202 179.44 188.665 178.597Z" fill="#378EC5"/>
<path d="M288.22 6.61502V1.55298C288.22 0.233832 287.291 -0.298596 286.154 0.360979L148.255 79.9788C147.653 80.3699 147.153 80.8976 146.794 81.5191C146.434 82.1406 146.227 82.8381 146.189 83.5548V88.6248L288.22 6.61502Z" fill="#378EC5"/>
<path d="M271.301 10.8745C270.857 11.1664 270.487 11.5587 270.222 12.0198C269.957 12.4808 269.804 12.9977 269.776 13.5287C269.776 14.5061 270.459 14.9035 271.301 14.4108C271.749 14.1229 272.121 13.7328 272.388 13.2727C272.654 12.8126 272.808 12.2956 272.835 11.7645C272.835 10.7871 272.152 10.3898 271.301 10.8745Z" fill="#F5F5F5"/>
<path d="M277.381 7.40965C276.935 7.70068 276.564 8.09259 276.297 8.55369C276.031 9.01478 275.877 9.53211 275.847 10.0638C275.847 11.0413 276.539 11.4307 277.381 10.9459C277.828 10.6563 278.201 10.2647 278.467 9.80335C278.734 9.34195 278.887 8.82391 278.915 8.29173C278.915 7.27456 278.231 6.88517 277.381 7.40965Z" fill="#F5F5F5"/>
<path d="M283.46 3.86546C283.013 4.15334 282.641 4.54343 282.374 5.00355C282.107 5.46367 281.954 5.98061 281.927 6.51171C281.927 7.48915 282.61 7.88648 283.46 7.40174C283.905 7.10983 284.274 6.71754 284.539 6.2565C284.804 5.79545 284.957 5.27857 284.986 4.74755C284.986 3.7701 284.303 3.37277 283.46 3.86546Z" fill="#F5F5F5"/>
<path d="M290.421 253.137C290.661 253.748 290.827 254.386 290.914 255.036C291.138 255.709 291.19 256.428 291.065 257.126C290.529 258.018 289.678 258.676 288.681 258.97C287.971 259.133 287.235 259.147 286.519 259.01C285.803 258.874 285.124 258.589 284.525 258.175C283.07 257.309 281.982 256.252 279.916 255.672C278.442 255.355 277.054 254.723 275.847 253.821C274.702 252.907 273.177 250.364 275.362 249.776C277.547 249.188 282.307 251.262 286.638 251.452L290.421 253.137Z" fill="#263238"/>
<path d="M290.214 250.276C290.214 250.276 290.469 253.312 290.469 253.685C290.469 254.711 286.686 256.069 285.987 253.685L285.383 250.459L290.214 250.276Z" fill="#F28F8F"/>
<path d="M285.574 183.675C286.874 185.588 288.065 187.572 289.142 189.619C289.142 189.619 289.515 194.038 289.515 196.978C289.515 202.382 288.681 206.554 287.926 217.202C289.155 219.297 289.858 221.658 289.976 224.084C290.294 228.908 290.302 228.852 290.334 251.103C289.61 251.493 288.815 251.735 287.996 251.814C287.177 251.894 286.351 251.808 285.566 251.564L278.414 220.405L277.619 208.175L275.378 192.973L285.574 183.675Z" fill="#37474F"/>
<path d="M268.647 258.708C268.902 258.97 268.814 259.502 268.933 260.376C269.065 261.049 269.1 261.737 269.037 262.419C268.62 263.364 267.866 264.12 266.923 264.541C266.237 264.788 265.508 264.891 264.78 264.843C264.053 264.795 263.343 264.597 262.695 264.262C261.154 263.579 259.938 262.673 257.816 262.347C256.314 262.218 254.859 261.765 253.549 261.02C252.301 260.226 250.465 257.921 252.563 257.047C254.661 256.173 259.922 257.738 264.237 257.389L268.647 258.708Z" fill="#263238"/>
<path d="M269.641 254.893C269.641 254.893 268.847 258.358 268.632 259.129C268.155 260.98 264.047 261.076 264.047 258.938L264.325 254.011L269.641 254.893Z" fill="#F28F8F"/>
<path d="M276.3 184.621C278.358 188.666 280.345 192.234 280.408 196.541C280.559 205.656 276.777 215.692 275.386 222.28C275.8 224.664 275.918 227.091 275.736 229.504C275.458 232.261 269.172 257.317 269.172 257.317C269.172 257.317 265.675 258.048 264.189 256.467L265.953 208.222L266.43 194.212L276.3 184.621Z" fill="#37474F"/>
<path d="M273.47 159.915L274.766 167.09L281.25 166.614L279.891 158.484L273.47 159.915Z" fill="#FFA8A7"/>
<path d="M288.093 166.089C287.449 164.142 284.978 162.021 282.53 162.481C278.854 163.106 275.23 164.009 271.691 165.183C269.426 165.978 267.36 167.957 267.169 175.411L266.462 194.165C267.441 195.035 268.616 195.657 269.887 195.977C273.328 196.922 275.601 197.487 280.83 196.342C287.64 194.856 289.261 190.732 289.261 190.732C289.261 190.732 288.999 180.806 288.792 175.411C288.625 170.825 288.53 167.432 288.093 166.089Z" fill="#455A64"/>
<path d="M270.706 150.752L237.687 141.796C234.699 141.28 233.452 148.575 236.44 149.083L270.348 152.508L270.706 150.752Z" fill="#263238"/>
<path d="M261.209 165.883L254.462 166.089C254.462 166.089 255.48 156.052 256.107 154.733C256.735 153.414 258.237 153.144 259.731 152.723C261.225 152.302 261.217 151.586 261.217 151.586L259.874 151.451C258.698 151.332 258.229 149.862 258.738 148.869C258.984 148.408 259.381 147.677 260.097 147.875L261.877 148.36C261.904 147.575 261.709 146.798 261.313 146.119C260.717 145.46 260.319 145.666 259.127 145.253C258.245 144.943 256.441 144.395 254.987 144.991C253.533 145.587 252.428 148.32 252.055 150.251C251.677 152.484 251.064 154.671 250.227 156.776C248.932 160.352 247.048 167.694 246.85 170.635C246.762 171.994 246.889 172.804 248.399 173.162C249.909 173.519 261.019 173.543 261.019 173.543L261.209 165.883Z" fill="#FFA8A7"/>
<path d="M268.672 151.42C268.672 151.42 267.083 153.74 267.305 153.994C267.664 154.234 268.062 154.408 268.481 154.511L268.672 151.42Z" fill="#FFA8A7"/>
<path d="M273.463 144.093C271.954 144.887 269.347 146.262 268.624 151.793C267.885 157.467 268.862 159.295 269.625 160.05C270.15 160.558 272.963 160.59 274.393 160.161C276.157 159.636 280.139 158.119 281.958 155.202C284.096 151.769 284.573 147.176 282.165 145.348C280.94 144.419 279.499 143.816 277.976 143.596C276.454 143.377 274.901 143.548 273.463 144.093Z" fill="#FFA8A7"/>
<path d="M277.906 212.569L281.347 202.843C284.014 201.897 286.404 200.302 288.3 198.202C288.3 198.202 287.505 200.975 282.07 203.82L278.295 213.022V218.14L277.906 212.569Z" fill="#263238"/>
<path d="M268.313 145.96C268.806 147.319 269.64 150.657 273.121 152.047C273.121 152.047 273.622 149.926 275.402 150.148C277.182 150.371 277.492 152.651 276.395 154.066C275.298 155.48 274.234 154.972 274.234 154.972C274.234 154.972 273.995 158.015 276.03 159.398C276.787 159.845 277.637 160.109 278.515 160.171C279.392 160.233 280.271 160.091 281.084 159.756C282.252 159.223 283.913 156.418 284.882 154.113C286.932 149.25 287.226 145.372 284.087 144.117C283.698 141.907 282.705 141.073 280.702 140.66C276.395 139.778 273.137 142.607 269.521 142.106C267.67 141.844 267.741 144.403 268.313 145.96Z" fill="#263238"/>
<path d="M284.192 144.887L286.226 143.624C286.049 143.376 285.784 143.205 285.485 143.145C285.186 143.086 284.876 143.142 284.617 143.303C284.358 143.463 284.17 143.717 284.091 144.011C284.012 144.305 284.048 144.619 284.192 144.887Z" fill="#263238"/>
<path d="M259.699 165.747C259.699 165.747 269.195 165.199 271.619 165.183C274.043 165.167 276.617 169.307 275.107 172.129C274.106 173.98 270.983 174.616 267.049 174.807C263.116 174.997 259.15 174.997 259.15 174.997C259.15 174.997 255.614 170.968 259.699 165.747Z" fill="#455A64"/>
<path d="M267.169 174.807C267.169 174.807 273.185 174.727 275.156 172.129C275.156 172.129 274.695 173.718 272.359 174.695C270.684 175.339 268.92 175.719 267.13 175.824L267.169 174.807Z" fill="#37474F"/>
<path d="M237.687 141.796C234.699 141.28 233.452 148.575 236.44 149.083L241.208 149.56C239.269 149.361 240.612 142.583 242.09 142.98L237.687 141.796Z" fill="#455A64"/>
<path d="M357.937 139.849C357.938 141.329 357.492 142.774 356.659 143.996C355.826 145.218 354.644 146.161 353.267 146.702C351.89 147.242 350.382 147.355 348.94 147.026C347.498 146.697 346.188 145.94 345.183 144.856L344.698 144.268C343.567 142.759 343.058 140.874 343.276 139.001C343.494 137.129 344.423 135.411 345.87 134.203C347.318 132.995 349.174 132.389 351.055 132.509C352.937 132.63 354.701 133.468 355.982 134.851L356.483 135.455C357.427 136.726 357.936 138.266 357.937 139.849Z" fill="#455A64"/>
<path d="M357.937 139.849C357.938 141.328 357.492 142.774 356.659 143.996C355.826 145.218 354.644 146.161 353.267 146.702C351.89 147.242 350.382 147.355 348.94 147.026C347.498 146.697 346.188 145.94 345.183 144.856L344.698 144.267L314.055 107.26L326.969 99.8058L355.982 134.835L356.483 135.439C357.43 136.714 357.94 138.261 357.937 139.849Z" fill="#455A64"/>
<path d="M332.587 129.638C333.874 130.987 335.625 131.798 337.487 131.906C339.349 132.014 341.182 131.411 342.616 130.219C344.05 129.027 344.979 127.335 345.213 125.485C345.448 123.635 344.971 121.765 343.879 120.253L340.089 115.683C341.222 117.192 341.731 119.079 341.513 120.953C341.294 122.828 340.364 124.547 338.914 125.755C337.465 126.963 335.606 127.567 333.723 127.444C331.84 127.321 330.076 126.479 328.796 125.092L332.587 129.638Z" fill="#378EC5"/>
<path d="M326.476 41.6281C328.789 41.8856 331.026 42.613 333.048 43.7658L323.726 38.3461C317.472 34.047 308.469 34.3013 298.464 40.0706C279.575 50.9814 264.253 77.5154 264.253 99.3369C264.253 110.057 267.901 117.718 273.917 121.357L274.044 121.437L283.993 127.166C282.229 126.018 280.691 124.556 279.455 122.851C281.907 123.12 284.386 122.977 286.79 122.43C287.664 122.239 288.546 122.009 289.444 121.723C289.327 121.687 289.213 121.642 289.103 121.588C288.625 121.364 288.167 121.098 287.736 120.793C286.954 120.248 286.257 119.589 285.67 118.838C284.867 117.81 284.214 116.673 283.731 115.461C283.083 115.554 282.43 115.602 281.776 115.604C280.229 115.635 278.694 115.328 277.278 114.706C276.947 114.554 276.626 114.382 276.317 114.189C276.038 114.014 275.76 113.808 275.522 113.601C274.947 110.911 274.667 108.167 274.687 105.416C274.687 83.6025 290.009 57.0606 308.914 46.1498C311.328 44.7417 313.885 43.5962 316.543 42.7327C317.259 43.0253 317.932 43.4129 318.545 43.885C319.194 44.3828 319.779 44.9594 320.286 45.6015C321.091 46.6321 321.747 47.7719 322.232 48.9868C322.883 48.8957 323.539 48.8505 324.195 48.8517C325.992 48.8034 327.769 49.234 329.345 50.0993C329.743 50.3166 330.124 50.5664 330.481 50.8463C330.338 50.2105 330.187 49.5828 330.004 48.9868C329.287 46.3394 328.091 43.8455 326.476 41.6281Z" fill="#263238"/>
<path d="M333.048 43.7658L332.508 43.4718C330.629 42.4879 328.584 41.8627 326.476 41.6282C324.214 41.3759 321.927 41.4805 319.698 41.9381C318.624 42.1416 317.562 42.4069 316.519 42.7327C313.861 43.5962 311.304 44.7418 308.89 46.1498C289.985 57.0606 274.664 83.6025 274.664 105.416C274.643 108.167 274.923 110.911 275.498 113.601C275.601 114.086 275.721 114.547 275.84 115.008C276.548 117.821 277.777 120.476 279.463 122.835C280.216 123.874 281.083 124.825 282.046 125.672C282.66 126.212 283.314 126.707 284.001 127.15C290.239 131.179 299.1 130.83 308.874 125.172C327.779 114.261 343.101 87.7269 343.101 65.9053C343.093 54.9945 339.254 47.3259 333.048 43.7658ZM329.313 50.1232C329.712 50.3404 330.092 50.5903 330.449 50.8702C331.049 51.3568 331.595 51.9056 332.078 52.5072C334.462 55.4951 335.726 60.1439 335.726 65.9291C335.726 85.0012 321.74 109.254 305.187 118.814C301.015 121.198 297.002 122.502 293.593 122.502C292.171 122.518 290.76 122.248 289.444 121.707C289.327 121.672 289.213 121.626 289.103 121.572C288.625 121.348 288.167 121.082 287.736 120.777C287.2 120.401 286.704 119.969 286.258 119.49C286.059 119.283 285.868 119.053 285.678 118.822C284.875 117.794 284.222 116.657 283.739 115.445C282.528 112.238 281.951 108.827 282.038 105.4C282.038 105.146 282.038 104.9 282.038 104.606C282.388 85.6131 296.223 61.9081 312.561 52.4833C312.935 52.2688 313.316 52.0542 313.698 51.8555C316.332 50.3838 319.21 49.396 322.193 48.9391C322.843 48.848 323.499 48.8029 324.156 48.804C325.57 48.7918 326.972 49.062 328.28 49.5987C328.638 49.7411 328.984 49.9139 329.313 50.1152V50.1232Z" fill="#455A64"/>
<path d="M335.726 65.9211C335.726 84.9931 321.74 109.246 305.187 118.806C304.183 119.391 303.148 119.921 302.088 120.396C299.44 121.673 296.555 122.382 293.617 122.478C292.194 122.494 290.784 122.224 289.468 121.683C289.351 121.648 289.237 121.602 289.127 121.548C288.648 121.324 288.191 121.058 287.76 120.753C286.978 120.208 286.281 119.549 285.694 118.798C285.487 118.52 285.273 118.25 285.082 117.94C285.455 117.94 285.876 117.996 286.242 117.996C289.651 117.996 293.664 116.716 297.836 114.308C314.365 104.804 328.359 80.5827 328.359 61.4471C328.359 56.1943 327.318 51.9111 325.34 48.8993C326.736 48.991 328.094 49.3956 329.313 50.0833C329.712 50.3006 330.092 50.5505 330.449 50.8303C331.049 51.317 331.595 51.8657 332.079 52.4673C334.176 55.0977 335.408 59.0075 335.662 63.847C335.702 64.5463 335.726 65.2297 335.726 65.9211Z" fill="#37474F"/>
<path opacity="0.6" d="M332.532 63.7199C332.532 82.7919 318.546 107.045 301.993 116.605C297.821 118.989 293.816 120.292 290.399 120.292C288.98 120.309 287.571 120.039 286.259 119.498C286.06 119.291 285.869 119.061 285.679 118.83C284.876 117.802 284.223 116.665 283.74 115.453C282.529 112.246 281.952 108.835 282.039 105.408C282.039 105.154 282.039 104.908 282.039 104.614C282.389 85.621 296.224 61.916 312.562 52.4912C312.936 52.2767 313.317 52.0621 313.699 51.8634C316.333 50.3917 319.211 49.4039 322.194 48.947C322.844 48.8559 323.5 48.8108 324.157 48.8119C325.571 48.7997 326.973 49.0699 328.281 49.6066C328.496 49.8211 328.694 50.0516 328.885 50.282C331.269 53.2859 332.532 57.9347 332.532 63.7199Z" fill="white"/>
</svg>
